<svg viewBox="0 0 511 511.99978" xmlns="http://www.w3.org/2000/svg" style="fill: white;"><path d="m296.417969 151.957031c-5.519531 0-9.996094 4.480469-9.996094 10 0 5.515625 4.476563 9.996094 9.996094 9.996094s9.996093-4.480469 9.996093-9.996094c0-5.519531-4.476562-10-9.996093-10zm0 0"/><path d="m235.792969 347.265625c3.902343-3.910156 3.902343-10.238281 0-14.148437-3.90625-3.898438-10.234375-3.898438-14.144531 0-3.898438 3.910156-3.898438 10.238281 0 14.148437 3.910156 3.898437 10.238281 3.898437 14.144531 0zm0 0"/><path d="m115.652344 509.042969c3.875 3.90625 10.183594 3.949219 14.109375.082031l48.46875-47.75c8.234375-8.234375 10.738281-20.425781 7.117187-31.023438l10.425782-10.054687c5.613281-5.421875 13.003906-8.410156 20.816406-8.410156h132.902344c23.578124 0 45.863281-9.054688 62.757812-25.496094.695312-.675781-5.277344 6.359375 90.667969-108.3125 14.230469-16.835937 12.101562-42.117187-4.75-56.363281-16.746094-14.113282-41.832031-12.085938-56.101563 4.460937l-58.992187 60.632813c-7.449219-9.167969-18.808594-14.882813-31.082031-14.882813h-111.480469c-15.863281-6.636719-32.695313-9.996093-50.0625-9.996093-48.125 0-90.167969 22.21875-112.734375 63.921874-9.503906-1.800781-19.527344 1.074219-26.738282 8.285157l-47.558593 47.699219c-3.882813 3.894531-3.890625 10.195312-.015625 14.097656zm74.792968-227.121094c15.3125 0 30.117188 3.082031 44.011719 9.160156 1.265625.554688 2.628907.839844 4.007813.839844h113.527344c10.839843 0 19.996093 8.839844 19.996093 19.992187 0 11.027344-8.96875 19.996094-19.996093 19.996094h-81.566407c-5.519531 0-9.996093 4.476563-9.996093 9.996094 0 5.523438 4.476562 9.996094 9.996093 9.996094h81.566407c22.050781 0 39.988281-17.9375 39.988281-39.988282 0-1.757812-.125-3.5-.351563-5.226562 57.066406-58.660156 65.113282-66.902344 65.457032-67.3125 7.125-8.410156 19.773437-9.476562 28.1875-2.382812 8.421874 7.121093 9.488281 19.761718 2.34375 28.21875l-89.667969 107.195312c-13.09375 12.570312-30.285157 19.488281-48.457031 19.488281h-132.902344c-13.023438 0-25.351563 4.980469-34.703125 14.015625l-8.496094 8.199219-78.320313-78.316406c18.304688-34.339844 52.652344-53.871094 95.375-53.871094zm-125.320312 66.34375c3.296875-3.296875 8.359375-3.890625 12.378906-1.40625 1.527344.929687 87.035156 86.648437 87.5625 87.355469 2.925782 3.941406 2.507813 9.539062-.917968 12.96875l-41.320313 40.707031-98.230469-98.980469zm0 0"/><path d="m156.457031 211.941406h239.933594c16.539063 0 29.992187-13.453125 29.992187-29.992187 0-25.199219 0-133.835938 0-151.957031 0-16.539063-13.453124-29.992188-29.992187-29.992188h-239.933594c-16.539062 0-29.992187 13.453125-29.992187 29.992188v151.957031c0 16.539062 13.453125 29.992187 29.992187 29.992187zm249.929688-131.964844h-259.925781v-19.992187h259.925781zm-9.996094 111.972657h-239.933594c-5.511719 0-9.996093-4.488281-9.996093-10v-81.976563h259.925781v81.976563c0 5.511719-4.484375 10-9.996094 10zm-239.933594-171.953125h239.933594c5.511719 0 9.996094 4.484375 9.996094 9.996094v9.996093h-259.925781v-9.996093c0-5.511719 4.484374-9.996094 9.996093-9.996094zm0 0"/><path d="m376.394531 151.957031h-39.988281c-5.519531 0-9.996094 4.476563-9.996094 10 0 5.519531 4.476563 9.996094 9.996094 9.996094h39.988281c5.523438 0 10-4.476563 10-9.996094 0-5.523437-4.476562-10-10-10zm0 0"/></svg>