<svg id="Capa_1" enable-background="new 0 0 512 512" height="512" viewBox="0 0 512 512" width="512" xmlns="http://www.w3.org/2000/svg" style="fill: white;"><g><path d="m491.969 459.5c0-19.025-14.245-34.776-32.627-37.173-4.77-9.989-12.884-27.66-18.191-45.378-6.542-21.84-6.586-37.149-.122-42.004 18.431-13.84 29.002-34.049 29.002-55.444 0-34.684-26.298-63.329-60-67.073v-137.428h60v-7.5c0-37.22-30.28-67.5-67.5-67.5h-315c-37.219 0-67.5 30.28-67.5 67.5v444.5h360v-15h-36.938v-15h118.875v15h-36.938v15h51.938v-30h15v-22.5zm-36.938-180c0 16.633-8.386 32.47-23.009 43.45-17.309 12.998-13.847 45.445 10.634 99.049h-80.25c24.479-53.604 27.942-86.052 10.634-99.049-14.623-10.98-23.009-26.817-23.009-43.45 0-28.949 23.551-52.5 52.5-52.5s52.5 23.552 52.5 52.5zm-52.5-264.5c26.402 0 48.315 19.591 51.966 45h-299.88c-2.013-18.123-11.238-34.097-24.723-45zm-74.437 482h-293.063v-429.5c0-28.949 23.551-52.5 52.5-52.5s52.5 23.551 52.5 52.5v7.5h255v137.427c-33.701 3.744-60 32.39-60 67.073 0 21.396 10.571 41.604 29.002 55.444 6.464 4.854 6.42 20.164-.122 42.004-5.306 17.716-13.421 35.388-18.191 45.378-18.382 2.397-32.627 18.147-32.627 37.173v22.501h15v15zm0-30v-7.5c0-12.407 10.093-22.5 22.5-22.5h103.875c12.406 0 22.5 10.093 22.5 22.5v7.5z"/><path d="m395.032 497h15v15h-15z"/><path d="m125.03 398.499h120v15h-120z"/><path d="m160.333 253.803 24.697-24.697 24.697 24.697 10.606-10.606-24.696-24.697 24.696-24.696-10.606-10.607-24.697 24.697-24.697-24.697-10.606 10.607 24.697 24.696-24.697 24.697z"/><path d="m125.03 361h120v15h-120z"/><path d="m125.03 323.5h120v15h-120z"/><path d="m245.03 136h-120c-12.407 0-22.5 10.093-22.5 22.5v52.5h15v-52.5c0-4.135 3.364-7.5 7.5-7.5h120c4.136 0 7.5 3.364 7.5 7.5v120c0 4.136-3.364 7.5-7.5 7.5h-120c-4.136 0-7.5-3.364-7.5-7.5v-52.5h-15v52.5c0 12.407 10.093 22.5 22.5 22.5h120c12.407 0 22.5-10.093 22.5-22.5v-120c0-12.406-10.093-22.5-22.5-22.5z"/><path d="m395.031 264.5h15v15h-15z"/><path d="m365.032 120h15v15h-15z"/><path d="m365.032 90h15v15h-15z"/></g></svg>