<?xml version="1.0" encoding="iso-8859-1"?>
<!-- Generator: Adobe Illustrator 19.0.0, SVG Export Plug-In . SVG Version: 6.00 Build 0)  -->
<svg version="1.1" id="Capa_1" xmlns="http://www.w3.org/2000/svg" xmlns:xlink="http://www.w3.org/1999/xlink" x="0px" y="0px"
	 viewBox="0 0 512 512" style="enable-background:new 0 0 512 512;" xml:space="preserve" fill="white">
<g>
	<g>
		<rect x="301" y="181" width="30" height="30"/>
	</g>
</g>
<g>
	<g>
		<path d="M346,361c-8.291,0-15-6.709-15-15v-45h-45c-8.291,0-15-6.709-15-15v-45h-45c-8.291,0-15-6.709-15-15v-45h-45
			c-8.291,0-15-6.709-15-15v-45h-30v270h270v-30H346z"/>
	</g>
</g>
<g>
	<g>
		<rect x="241" y="181" width="30" height="30"/>
	</g>
</g>
<g>
	<g>
		<rect x="301" y="241" width="30" height="30"/>
	</g>
</g>
<g>
	<g>
		<rect x="241" y="121" width="30" height="30"/>
	</g>
</g>
<g>
	<g>
		<path d="M467,0H45C20.186,0,0,20.186,0,45v422c0,24.814,20.186,45,45,45h422c24.814,0,45-20.186,45-45V45
			C512,20.186,491.814,0,467,0z M421,166c0,8.291-6.709,15-15,15h-45v30h45c8.291,0,15,6.709,15,15v60c0,8.291-6.709,15-15,15h-45
			v30h45c8.291,0,15,6.709,15,15v60c0,8.291-6.709,15-15,15H106c-8.291,0-15-6.709-15-15V106c0-8.291,6.709-15,15-15h60
			c8.291,0,15,6.709,15,15v45h30v-45c0-8.291,6.709-15,15-15h60c8.291,0,15,6.709,15,15v45h30v-45c0-8.291,6.709-15,15-15h60
			c8.291,0,15,6.709,15,15V166z"/>
	</g>
</g>
<g>
	<g>
		<rect x="361" y="241" width="30" height="30"/>
	</g>
</g>
<g>
	<g>
		<rect x="361" y="121" width="30" height="30"/>
	</g>
</g>
<g>
</g>
<g>
</g>
<g>
</g>
<g>
</g>
<g>
</g>
<g>
</g>
<g>
</g>
<g>
</g>
<g>
</g>
<g>
</g>
<g>
</g>
<g>
</g>
<g>
</g>
<g>
</g>
<g>
</g>
</svg>
